<svg width="29" height="26" viewBox="0 0 29 26" fill="none" xmlns="http://www.w3.org/2000/svg">
<path d="M9.07363 9.43477L6.24463 12.2638L14.0276 20.0468L27.9596 6.11477L25.1316 3.28577L14.0276 14.3878L9.07363 9.43477Z" fill="#E9E9E9"/>
<path d="M22.7886 21.9487C22.7886 22.4907 22.3306 22.9487 21.7886 22.9487H4.78864C4.24664 22.9487 3.78864 22.4907 3.78864 21.9487V4.94873C3.78864 4.40673 4.24664 3.94873 4.78864 3.94873H21.6966L23.2816 2.36373C22.8297 2.09527 22.3143 1.95203 21.7886 1.94873H4.78864C3.13864 1.94873 1.78864 3.29873 1.78864 4.94873V21.9487C1.78864 23.5987 3.13864 24.9487 4.78864 24.9487H21.7886C23.4386 24.9487 24.7886 23.5987 24.7886 21.9487V12.1197L22.7886 14.1197V21.9487Z" fill="#E9E9E9"/>
</svg>
