<svg width="26" height="26" viewBox="0 0 26 26" fill="none" xmlns="http://www.w3.org/2000/svg">
<path fill-rule="evenodd" clip-rule="evenodd" d="M4.26215 1.94873H21.2621C22.9121 1.94873 24.2621 3.29873 24.2621 4.94873V21.9487C24.2621 23.5987 22.9121 24.9487 21.2621 24.9487H4.26215C2.61215 24.9487 1.26215 23.5987 1.26215 21.9487V4.94873C1.26215 3.29873 2.61215 1.94873 4.26215 1.94873ZM22.2621 4.94873C22.2621 4.40673 21.8041 3.94873 21.2621 3.94873H4.26215C3.72015 3.94873 3.26215 4.40673 3.26215 4.94873V21.9487C3.26215 22.4907 3.72015 22.9487 4.26215 22.9487H21.2621C21.8041 22.9487 22.2621 22.4907 22.2621 21.9487V4.94873Z" fill="#C5C5C5"/>
</svg>
