<svg width="26" height="26" viewBox="0 0 26 26" fill="none" xmlns="http://www.w3.org/2000/svg">
<path fill-rule="evenodd" clip-rule="evenodd" d="M3.99653 0.94873H22.4748C24.2683 0.94873 25.7357 2.41612 25.7357 4.2096V22.6879C25.7357 24.4813 24.2683 25.9487 22.4748 25.9487H3.99653C2.20305 25.9487 0.735657 24.4813 0.735657 22.6879V4.2096C0.735657 2.41612 2.20305 0.94873 3.99653 0.94873ZM23.5617 4.20956C23.5617 3.62043 23.0639 3.1226 22.4748 3.1226H3.9965C3.40737 3.1226 2.90955 3.62043 2.90955 4.20956V22.6878C2.90955 23.2769 3.40737 23.7748 3.9965 23.7748H22.4748C23.0639 23.7748 23.5617 23.2769 23.5617 22.6878V4.20956Z" fill="#63A63E"/>
<path fill-rule="evenodd" clip-rule="evenodd" d="M4.73566 1.94873H21.7357C23.3857 1.94873 24.7357 3.29873 24.7357 4.94873V21.9487C24.7357 23.5987 23.3857 24.9487 21.7357 24.9487H4.73566C3.08566 24.9487 1.73566 23.5987 1.73566 21.9487V4.94873C1.73566 3.29873 3.08566 1.94873 4.73566 1.94873ZM22.7357 4.94873C22.7357 4.40673 22.2777 3.94873 21.7357 3.94873H4.73566C4.19366 3.94873 3.73566 4.40673 3.73566 4.94873V21.9487C3.73566 22.4907 4.19366 22.9487 4.73566 22.9487H21.7357C22.2777 22.9487 22.7357 22.4907 22.7357 21.9487V4.94873Z" fill="#C5C5C5"/>
</svg>
