<svg width="29" height="26" viewBox="0 0 29 26" fill="none" xmlns="http://www.w3.org/2000/svg">
<path fill-rule="evenodd" clip-rule="evenodd" d="M3.52302 0.94873H22.0013C23.7948 0.94873 25.2621 2.41612 25.2621 4.2096V22.6879C25.2621 24.4813 23.7948 25.9487 22.0013 25.9487H3.52302C1.72954 25.9487 0.262146 24.4813 0.262146 22.6879V4.2096C0.262146 2.41612 1.72954 0.94873 3.52302 0.94873ZM23.0882 4.20956C23.0882 3.62043 22.5904 3.1226 22.0012 3.1226H3.52299C2.93386 3.1226 2.43604 3.62043 2.43604 4.20956V22.6878C2.43604 23.2769 2.93386 23.7748 3.52299 23.7748H22.0012C22.5904 23.7748 23.0882 23.2769 23.0882 22.6878V4.20956Z" fill="#63A63E"/>
<path d="M8.54714 9.43477L5.71814 12.2638L13.5011 20.0468L27.4331 6.11477L24.6051 3.28577L13.5011 14.3878L8.54714 9.43477Z" fill="#C5C5C5"/>
<path d="M22.2621 21.9487C22.2621 22.4907 21.8041 22.9487 21.2621 22.9487H4.26215C3.72015 22.9487 3.26215 22.4907 3.26215 21.9487V4.94873C3.26215 4.40673 3.72015 3.94873 4.26215 3.94873H21.1701L22.7551 2.36373C22.3032 2.09527 21.7878 1.95203 21.2621 1.94873H4.26215C2.61215 1.94873 1.26215 3.29873 1.26215 4.94873V21.9487C1.26215 23.5987 2.61215 24.9487 4.26215 24.9487H21.2621C22.9121 24.9487 24.2621 23.5987 24.2621 21.9487V12.1197L22.2621 14.1197V21.9487Z" fill="#C5C5C5"/>
</svg>
