<svg width="28" height="28" viewBox="0 0 28 28" fill="none" xmlns="http://www.w3.org/2000/svg">
<path fill-rule="evenodd" clip-rule="evenodd" d="M1.5 14C1.5 7.097 7.097 1.5 14 1.5C20.903 1.5 26.5 7.097 26.5 14C26.5 20.903 20.903 26.5 14 26.5C7.097 26.5 1.5 20.903 1.5 14ZM22.5 14C22.5 9.313 18.687 5.5 14 5.5C9.313 5.5 5.5 9.313 5.5 14C5.5 18.687 9.313 22.5 14 22.5C18.687 22.5 22.5 18.687 22.5 14Z" fill="#E9E9E9"/>
<path d="M14 18.5C16.4853 18.5 18.5 16.4853 18.5 14C18.5 11.5147 16.4853 9.5 14 9.5C11.5147 9.5 9.5 11.5147 9.5 14C9.5 16.4853 11.5147 18.5 14 18.5Z" fill="#E9E9E9"/>
</svg>
