<svg width="29" height="28" viewBox="0 0 29 28" fill="none" xmlns="http://www.w3.org/2000/svg">
<path fill-rule="evenodd" clip-rule="evenodd" d="M0.844421 14C0.844421 6.26864 7.11306 0 14.8444 0C22.5758 0 28.8444 6.26864 28.8444 14C28.8444 21.7314 22.5758 28 14.8444 28C7.11306 28 0.844421 21.7314 0.844421 14ZM24.3643 14.0001C24.3643 8.75063 20.0938 4.48007 14.8443 4.48007C9.5949 4.48007 5.32434 8.75063 5.32434 14.0001C5.32434 19.2495 9.5949 23.5201 14.8443 23.5201C20.0938 23.5201 24.3643 19.2495 24.3643 14.0001Z" fill="#63A63E"/>
<path fill-rule="evenodd" clip-rule="evenodd" d="M2.34442 14C2.34442 7.097 7.94142 1.5 14.8444 1.5C21.7474 1.5 27.3444 7.097 27.3444 14C27.3444 20.903 21.7474 26.5 14.8444 26.5C7.94142 26.5 2.34442 20.903 2.34442 14ZM23.3444 14C23.3444 9.313 19.5314 5.5 14.8444 5.5C10.1574 5.5 6.34442 9.313 6.34442 14C6.34442 18.687 10.1574 22.5 14.8444 22.5C19.5314 22.5 23.3444 18.687 23.3444 14Z" fill="#C5C5C5"/>
</svg>
